# xmcd
#
# Track frame offsets:
#	150
#	15184
#	32706
#	45007
#	61520
#	78157
#	97513
#	111056
#	130393
#	144007
#	169023
#	193424
#	204820
#
# Disc length: 2966 seconds
#
# Revision: 1
# Processed by: cddbd v1.5.2PL0 Copyright (c) Steve Scherf et al.
# Submitted via: audiograbber 1.83.01
#
DISCID=880b940d
DTITLE=Leo Mattioli - Caballito de mar
DYEAR=1900
DGENRE=Cumbia
TTITLE0=Caballito de mar (x lisa)
TTITLE1=El sexo contigo
TTITLE2=Era mentira
TTITLE3=Es amor lo que siento
TTITLE4=Que no se entere
TTITLE5=Junto a mi
TTITLE6=Quemas como el infierno
TTITLE7=La creacion mas divina
TTITLE8=La cama tan fria
TTITLE9=Mi tristesa (acus.)
TTITLE10=Si me das tu corazon (acus.)
TTITLE11=Te propongo
TTITLE12=A los cuarenta
EXTD=
EXTT0=
EXTT1=
EXTT2=
EXTT3=
EXTT4=
EXTT5=
EXTT6=
EXTT7=
EXTT8=
EXTT9=
EXTT10=
EXTT11=
EXTT12=
PLAYORDER=
